# xmcd
#
# Track frame offsets: 
#        150
#        14892
#        31860
#        46982
#        57892
#        72515
#        87687
#        101705
#        121995
#        143422
#        163322
#        189592
#        203452
#        216172
#        231715
#        245590
#        256000
#
# Disc length: 3723 seconds
#
# Revision: 1
# Processed by: cddbd v1.5.2PL0 Copyright (c) Steve Scherf et al.
# Submitted via: ExactAudioCopy v1.3
#
DISCID=fc0e8911
DTITLE=Various Artist - Il Giovane Dizzy
DYEAR=2004
DGENRE=Jazz
TTITLE0=Teddy Hill And His Orchestra - Teddy Hill And His Orchestra - 
TTITLE0=King Porter Stomp
TTITLE1=Lionel Hampton And His Orchestra - Lionel Hampton And His Orch
TTITLE1=estra - Red Cross
TTITLE2=Slim Gillard All Stars - Slim Gillard All Stars - Dizzy's Boog
TTITLE2=ie
TTITLE3=Clyde Hart All Stars - Clyde Hart All Stars - 4-F Blues
TTITLE4=Boyd Raeburn And His Orchestra - Boyd Raeburn And His Orchestr
TTITLE4=a - Barefoot Boy With Cheek
TTITLE5=Duke Ellington And His Orchestra - Duke Ellington And His Orch
TTITLE5=estra - Body And Soul
TTITLE6=Oscar Pettiford - Oscar Pettiford - A Night In Tunisia
TTITLE7=Dizzy Gillespie And His Rebop Six - Dizzy Gillespie And His Re
TTITLE7=bop Six - Dizzy Atmosphere
TTITLE8=Metronome All Stars - Metronome All Stars - Overtime
TTITLE9=Metronome All Stars - Metronome All Stars - Victory Ball
TTITLE10=Dizzy Gillespie And His Orchestra - Dizzy Gillespie And His O
TTITLE10=rchestra - Taboo
TTITLE11=Dizzy Gillespie Sextet - Dizzy Gillespie Sextet - Caravan
TTITLE12=Dizzy Gillespie Sextet - Dizzy Gillespie Sextet - Tin Tin Deo
TTITLE13=Dizzy Gillespie Sextet - Dizzy Gillespie Sextet - Congo Blues
TTITLE14=Dizzy Gillespie - Dizzy Gillespie - The Bluest Blues
TTITLE15=Dizzy Gillespie Quintet - Dizzy Gillespie Quintet - 52nd Stre
TTITLE15=et Theme
TTITLE16=Candido - Candido - A Night In Tunisia
EXTD=YEAR: 2004
EXTT0=
EXTT1=
EXTT2=
EXTT3=
EXTT4=
EXTT5=
EXTT6=
EXTT7=
EXTT8=
EXTT9=
EXTT10=
EXTT11=
EXTT12=
EXTT13=
EXTT14=
EXTT15=
EXTT16=
PLAYORDER=
